<svg xmlns="http://www.w3.org/2000/svg" xmlns:xlink="http://www.w3.org/1999/xlink" version="1.1" x="0px" y="0px" viewBox="0 0 650 812.5" style="enable-background:new 0 0 650 650;" xml:space="preserve"><style type="text/css">
	.st0{fill-rule:evenodd;clip-rule:evenodd;}
</style><g><path class="st0" d="M375.58493,143.20862c-13.21512,13.2151-31.42291,21.45351-51.36121,21.45351   c-20.00699,0-38.28281-8.31041-51.52481-21.8024c-13.11929-13.36681-21.29019-31.80251-21.29019-52.2527   c0-19.93871,8.23831-38.1462,21.4534-51.3616c13.21552-13.2151,31.42322-21.4534,51.3616-21.4534   c20.0069,0,38.28271,8.3103,51.52469,21.8021c13.11911,13.3671,21.28992,31.8025,21.28992,52.253   C397.03833,111.78572,388.80002,129.99323,375.58493,143.20862L375.58493,143.20862z M348.04694,66.78372   c-6.16312-6.163-14.61862-10.0153-23.82321-10.0153c-9.20471,0-17.66019,3.8523-23.8233,10.0153   c-6.16299,6.1631-10.01529,14.6186-10.01529,23.8233c0,9.2046,3.85229,17.6601,10.01529,23.8232   c6.16312,6.1631,14.61859,10.0153,23.8233,10.0153c9.20459,0,17.6601-3.8522,23.82321-10.0153   c6.16309-6.1631,10.01529-14.6186,10.01529-23.8232C358.06223,81.40232,354.21002,72.94682,348.04694,66.78372L348.04694,66.78372z    M610.74963,427.56952c-5.35431-5.3544-12.1286-9.6355-19.96442-12.48462l-0.38751-0.1384   c-7.44031-2.23199-15.6886-2.9032-23.72906-1.60629c-7.39642,1.19281-14.59564,4.02631-20.83179,8.80411   c-8.54932,5.758-14.31982,14.20178-17.31635,23.69189c-3.11609,9.86771-3.2099,20.9024-0.27997,31.1571l0.01385-0.004   c2.71106,9.80188,2.12231,19.84308-1.48938,28.58679c-3.45911,8.375-9.73328,15.59143-18.57199,20.27063   c-9.06149,4.7973-19.50259,5.82007-29.41229,3.3429c-9.81012-2.45264-19.09579-8.32544-26.05151-17.36111l-68.8989-95.0329   l132.1192-179.39061l0.02771-0.02769l59.52759-81.8504l-0.01813-0.01309l43.39581-59.5145l0.0556-0.0553   c3.75671-5.2591,6.7337-11.3678,8.30579-17.9178c1.39893-5.8297,1.67102-11.9817,0.38354-18.1751   c-0.74719-6.4347-2.87659-12.5079-6.05139-17.8807c-3.28003-5.5508-7.70001-10.3759-12.88184-14.0978   c-4.1618-3.4059-8.63971-5.8462-13.28198-7.471c-5.16919-1.8091-10.47144-2.6096-15.71643-2.6096   c-7.99335,0-15.66046,1.8522-22.4436,5.3691c-6.75238,3.5014-12.57898,8.6119-16.93695,15.1489l0.00739,0.0051l-216.1012,294.5741   l-138.15352-188.1748l-0.1937-0.22139l-4.7775-5.97171l0.0105-0.00769l-73.1715-99.21091c-0.3167-0.4584-0.5775-0.8274-0.785-1.11   c-7.9321-10.8171-19.16071-17.2732-31.08611-19.2039c-11.8797-1.9233-24.4281,0.688-35.0572,7.9954   c-0.519,0.3569-0.934,0.6491-1.2393,0.8731l0.002,0.0028c-5.0219,3.604-9.3226,8.2553-12.7267,13.6046   c-3.4127,5.3634-5.9239,11.4366-7.3503,17.856l-0.1114,0.5003l-0.0272,0.2472c-0.7132,6.4213-0.3322,12.8894,1.1427,19.0355   c1.4612,6.0888,3.9855,11.8196,7.5716,16.8403l0.0556,0.0553l43.3958,59.5145l-0.0181,0.01309   c20.1827,27.7511,40.1286,54.608,60.85079,81.9612l0.0164-0.0125l130.81612,179.26581l-68.96301,93.92999   c-6.3476,8.99258-15.3105,14.83939-25.0722,17.27939c-9.8696,2.46759-20.55029,1.4718-30.17529-3.2522l0.0051-0.00897   c-8.57739-4.82465-14.984-12.35175-18.3972-21.07483c-3.3349-8.522-3.8194-18.1868-0.6868-27.58481l0.1106-0.27689   c2.86069-10.01309,2.5106-20.3992-0.5168-29.7337c-3.08521-9.51309-8.9444-17.94479-17.02261-23.8201l-0.2214-0.16611   c-4.3673-2.9118-9.2013-5.46469-14.3283-7.259c-4.6862-1.64008-9.538-2.6124-14.4056-2.6124   c-10.969,0-21.2562,3.38992-29.5294,9.5947c-7.9758,5.98172-14.0085,14.5361-16.9098,25.14981   c-10.3737,30.60062-9.1023,62.483,1.7252,90.81842c10.8932,28.50769,31.4657,53.42645,59.5805,69.83118l-0.0014,0.00262   c10.0573,6.28577,21.0019,10.77417,32.2651,13.74908c12.3191,3.25391,24.96391,4.69281,37.20049,4.69281   c22.55521,0,45.14401-5.42499,65.6951-15.92883c19.75471-10.09668,37.57872-24.87567,51.62151-44.02509l50.10461-67.91949   l50.1044,67.91949c14.04279,19.14941,31.86679,33.92841,51.6214,44.02509c20.55118,10.50385,43.13989,15.92883,65.69519,15.92883   c11.74249,0,23.8374-1.63959,35.62701-4.75342c11.74078-3.10107,23.14569-7.66351,33.56158-13.5224l0.22137-0.13837   c26.97705-16.44916,46.99701-41.51685,57.72131-70.19373c10.5528-28.2164,12.09741-59.94031,2.40753-90.39551l0.01898-0.00558   C620.23474,439.63062,616.2146,433.03442,610.74963,427.56952L610.74963,427.56952z M179.88443,585.43744   c-24.06731,5.39435-49.66641,2.19257-71.5145-11.03101h-0.0278c-20.3465-12.2077-35.1566-30.22412-43.1186-50.84424   c-7.9305-20.53729-9.0692-43.6861-2.1195-66.27307l0.0553-0.1384c0.6004-2.10193,1.6458-3.47842,2.882-4.33411   c1.7918-1.24081,4.1919-1.67841,6.4304-1.67841c1.3065,0,3.2666,0.00031,4.9107,1.64429l0.5536,0.55392l0.8306,0.49808   c1.6084,0.9649,2.7295,2.39722,3.2831,4.05832c0.6151,1.8457,0.5927,4.02328-0.1551,6.26688l-0.083,0.22162   c-5.3904,18.19339-4.1012,36.72058,2.5438,53.09549c6.7433,16.6178,19.0139,31.01642,35.4194,40.58618l0.1939,0.11084   c17.64289,9.49976,37.6209,11.56989,56.2383,7.2182c18.6772-4.36603,36.01469-15.22009,48.25049-31.5343l0.05521-0.08313   l61.29581-83.99789l12.3237,16.6731l-55.31621,77.67813l0.0097,0.00677C227.05373,565.716,204.26033,579.97424,179.88443,585.43744   L179.88443,585.43744z M510.12793,146.03313l6.7193-9.5191l15.84167,11.52119l-6.7193,9.519L510.12793,146.03313   L510.12793,146.03313z M498.70914,185.65633l0.1662,0.13829l4.88318,3.2556l-7.33289,9.5891l-16.0614-11.681l6.76001-9.57689   L498.70914,185.65633L498.70914,185.65633z M572.45874,60.32442c1.40601-1.6874,3.47748-2.8187,5.71918-3.2113   c2.1217-0.3717,4.34753-0.027,6.2002,1.2081l0.0127-0.0193c0.27594,0.1843,0.51544,0.3606,0.71411,0.5261l0.49829,0.4153   l0.08313,0.0553c2.20868,1.4723,3.71136,3.8001,4.50647,6.9814c0.30084,1.2031,0.33679,2.1391,0.11084,2.8735   c-0.25342,0.8243-0.91675,1.74129-1.97662,2.80119l-0.35431,0.3543l-32.16901,44.3713l-15.8374-11.5183l31.81799-43.8871   l0.13843-0.2214C572.11462,60.76612,572.2934,60.52262,572.45874,60.32442L572.45874,60.32442z M473.08344,229.82892   L361.36972,383.72043l-12.25809-16.58441l108.13208-148.8271L473.08344,229.82892L473.08344,229.82892z M131.59993,136.51402   l6.7881,9.61659l-4.28151,3.21111l-0.0034-0.00459l-11.77989,8.4144l-6.6416-9.6608L131.59993,136.51402L131.59993,136.51402z    M150.81192,185.79462l0.1662-0.13829l11.5849-8.2749l6.67241,9.453l-16.91031,11.76379l-6.62999-9.3923L150.81192,185.79462   L150.81192,185.79462z M62.76082,59.29862l0.5816-0.3878l0.4981-0.498c0.4966-0.4967,1.1225-0.876,1.8147-1.1353   c0.90459-0.3393,1.97009-0.5091,3.09599-0.5091c2.7873,0,6.1603,1.1704,7.3301,3.5101l0.3133,0.6268l32.0862,44.2567   l-15.8375,11.5183l-31.7792-43.8335c-0.8099-1.2464-1.4085-2.452-1.7906-3.6933c-0.3331-1.0831-0.5273-2.3046-0.5817-3.7295   C59.33202,62.67782,60.75533,60.63542,62.76082,59.29862L62.76082,59.29862z M468.56271,585.43744   c-24.39948-5.46863-47.21359-19.7486-62.9873-41.36481v-0.02783L175.38353,229.81442l15.8485-11.5262L307.35983,377.5148   l33.48419,45.8858l80.58731,110.3428l-0.0051,0.00372c12.23657,16.99567,29.60168,28.19598,48.3248,32.57288   c18.65509,4.3606,38.66937,1.95648,56.3476-8.21991l0.01019,0.01819c16.87921-9.45239,29.06708-23.63867,35.72357-40.04199   c6.71143-16.53949,7.77325-35.29977,2.32281-53.69498l-0.08307-0.22162c-0.74243-2.22778-0.75464-4.43768-0.1261-6.44879   c0.64429-2.06219,1.9624-3.96741,3.86298-5.5318c1.37817-1.0336,2.73633-1.54858,4.16351-1.7164   c1.74139-0.20468,3.81012,0.03772,6.20197,0.50992c0.80701,0.25909,1.6463,0.8768,2.47064,1.70108   c1.44629,1.4465,2.67706,3.3299,3.67859,5.2594c7.33661,22.39481,6.4425,45.6134-1.27759,66.13312   c-7.79053,20.7063-22.55194,38.66937-42.83044,50.2572l-0.13855,0.08301C518.22913,587.63,492.63004,590.83179,468.56271,585.43744   z"/></g><text x="0" y="665" fill="#000000" font-size="5px" font-weight="bold" font-family="'Helvetica Neue', Helvetica, Arial-Unicode, Arial, Sans-serif">Created by Evgenii Likhachov</text><text x="0" y="670" fill="#000000" font-size="5px" font-weight="bold" font-family="'Helvetica Neue', Helvetica, Arial-Unicode, Arial, Sans-serif">from the Noun Project</text></svg>